<svg width="120" height="55" fill="none" xmlns="http://www.w3.org/2000/svg"><g clip-path="url(#clip0_2638_39119)" fill="#408F95"><path d="M94.506 6.112a.28.28 0 00.252-.158 1.7 1.7 0 00.179-.917c-.16-1.526-2.54-2.287-4.28-2.843a21.778 21.778 0 00-5.773-1 .28.28 0 00-.292.267.28.28 0 00.27.29c1.946.076 3.837.402 5.624.973 1.411.452 3.774 1.206 3.894 2.372.02.196-.022.404-.126.62a.278.278 0 00.252.4v-.004zM63.15 7.817h.032a7.5 7.5 0 001.337-.279c.58-.177 1.013-.393 1.196-.484l.06-.03a77.774 77.774 0 016.073-2.618c1.885-.718 3.376-1.286 5.38-1.784a34.157 34.157 0 016.512-.953.279.279 0 10-.028-.556c-2.242.11-4.468.437-6.62.971-2.04.506-3.542 1.079-5.446 1.803a78.533 78.533 0 00-6.116 2.635l-.068.033c-.187.093-.576.287-1.11.452a6.95 6.95 0 01-1.238.257.277.277 0 00.033.553h.002z"/><path d="M89.332 11.043a.307.307 0 00.128-.03 36.62 36.62 0 001.879-1.036c.18-.108.517-.307.952-.599a18.39 18.39 0 001.952-1.507c.013-.013.026-.026.037-.04.024-.031.061-.076.109-.133.491-.592.954-1.208.76-1.65-.06-.14-.21-.31-.571-.33a.279.279 0 10-.033.556.441.441 0 01.092.013c0 .1-.103.36-.68 1.057a7.298 7.298 0 00-.105.127c-.465.409-.957.798-1.463 1.16-.146.103-.283.196-.411.285-.422.283-.75.477-.926.583a36.53 36.53 0 01-1.848 1.018.278.278 0 00-.12.377c.05.095.148.151.248.151v-.002zm-11.147 1.623c2.735 0 5.361-.307 5.394-.31a45.251 45.251 0 004.946-.9.278.278 0 10-.13-.54 44.147 44.147 0 01-4.883.886c-.035.004-3.733.436-6.89.268a22.153 22.153 0 01-2.95-.357c-.437-.082-.674-.14-1.668-.38l-1.202-.292c-.394-.095-.737-.182-1.042-.258-.908-.227-1.508-.378-2.091-.419a8.652 8.652 0 00-2.613.22.277.277 0 00-.207.336.277.277 0 00.337.205 8.162 8.162 0 012.444-.205c.535.036 1.085.175 1.993.404.307.078.653.164 1.046.26l1.202.291c.981.238 1.244.303 1.696.387a23.25 23.25 0 003.024.365c.524.029 1.061.04 1.594.04zM62.268 7.837a.278.278 0 00.083-.545c-.652-.199-4.053-1.215-6.855-1.626-1.367-.2-2.37-.22-3.461-.069-.357.05-.713.119-1.061.203a.278.278 0 10.135.54c.328-.08.667-.144 1.006-.192 1.035-.144 1.992-.125 3.303.067 2.76.407 6.126 1.41 6.772 1.609a.274.274 0 00.083.013h-.005zm-8.053 10.117c.02 0 .04 0 .06-.006 1.252-.268 3.382-1.3 4.16-2.01.672-.5 1.21-.896 1.666-1.233 1.58-1.165 2.235-1.645 4.311-3.383a.279.279 0 00.035-.392.283.283 0 00-.394-.034c-2.063 1.725-2.713 2.205-4.285 3.361-.46.34-1.002.738-1.68 1.244-.01.006-.016.013-.024.02-.7.648-2.746 1.633-3.91 1.882a.278.278 0 00-.215.33.28.28 0 00.274.221h.002z"/><path d="M54.216 17.954a.28.28 0 00.204-.088c.728-.772 1.663-2.071 1.974-3.879.094-.54.311-1.805-.2-3.242-.467-1.313-1.282-2.072-2.226-2.951a12.696 12.696 0 00-2.8-1.97.28.28 0 00-.379.117.278.278 0 00.118.376A12.147 12.147 0 0153.583 8.2c.926.863 1.659 1.546 2.08 2.73.464 1.302.264 2.467.177 2.964-.287 1.671-1.155 2.876-1.83 3.591a.276.276 0 00.012.394c.055.05.124.075.192.075h.002zm3.907-8.697a.273.273 0 00.217-.104.277.277 0 00-.041-.391 7.612 7.612 0 00-1.55-.966 7.736 7.736 0 00-2.1-.638.279.279 0 10-.085.551 7.124 7.124 0 013.385 1.49.283.283 0 00.176.062l-.002-.004zM56.977 15.3c.058 0 .12-.02.171-.059.605-.465 1.679-1.466 2.061-2.949.118-.458.366-1.413-.067-2.388a3.01 3.01 0 00-.213-.396.28.28 0 00-.47.303c.066.099.124.207.172.317.355.8.148 1.598.037 2.028-.341 1.323-1.313 2.227-1.86 2.646a.277.277 0 00-.05.392.276.276 0 00.22.108l-.001-.002zm27.585-5.976c.059 0 .118 0 .178-.004a4.34 4.34 0 002.596-1.023.277.277 0 00.033-.391.28.28 0 00-.394-.032 3.78 3.78 0 01-2.256.89c-1.107.046-1.86-.415-2.357-.722-.272-.168-.376-.27-.411-.316.083-.092.44-.255 1.596-.46a12.513 12.513 0 013.25-.134.277.277 0 10.048-.553 13.114 13.114 0 00-3.396.14c-1.063.188-2.022.406-2.068.982-.021.261.185.505.687.815.498.307 1.316.808 2.496.808h-.002z"/><path d="M89.48 9.728a.284.284 0 00.246-.142.277.277 0 00-.11-.379 6.417 6.417 0 01-2.128-1.876 6.18 6.18 0 01-.726-1.325.28.28 0 00-.363-.156.278.278 0 00-.156.361c.206.512.471.999.791 1.442a6.969 6.969 0 002.311 2.04.27.27 0 00.135.035zm2.572-5.523a.445.445 0 00-.879.147.445.445 0 00.879-.147zM79.507 14.698a10.293 10.293 0 003.333-.592c2.261-.8 3.498-1.49 5.546-2.63a.276.276 0 00.107-.38.28.28 0 00-.38-.105c-2.092 1.165-3.245 1.807-5.462 2.592a9.901 9.901 0 01-1.794.45 9.95 9.95 0 01-1.341.11c-.511-.02-.757-.089-.868-.138.137-.093.487-.275 1.363-.55a.277.277 0 10-.167-.53c-1.409.442-1.885.744-1.82 1.153.083.51.887.599 1.485.623l-.002-.003z"/><path d="M78.653 13.484c.174 0 .339-.01.495-.018a23.201 23.201 0 004.136-.635 25.32 25.32 0 002.52-.815.28.28 0 00.16-.36.282.282 0 00-.36-.16c-.81.31-1.638.578-2.464.798-.074.02-1.833.483-4.024.617-.505.03-1.048.043-1.685-.182a3.574 3.574 0 01-.974-.525.28.28 0 00-.391.054.276.276 0 00.054.389 4.133 4.133 0 002.534.837h-.001z"/><path d="M69.415 14.699c.73 0 1.457-.072 2.176-.214a11.29 11.29 0 004.44-1.963.278.278 0 00.059-.39.282.282 0 00-.392-.058 10.697 10.697 0 01-4.215 1.866 10.596 10.596 0 01-3.446.114c.043-.372.17-1.03.517-1.507.1-.136.265-.363.557-.546.076-.05.135-.078.293-.156l.111-.054c.317-.158.574-.29.744-.379a.278.278 0 00.117-.376.281.281 0 00-.378-.116c-.168.088-.42.218-.733.371l-.109.054c-.167.083-.243.12-.348.186a2.54 2.54 0 00-.706.688c-.541.735-.633 1.762-.648 2.058a.28.28 0 00.237.29c.574.088 1.15.134 1.726.134l-.002-.002zm-2.44-8.779c.411 0 .848-.029 1.335-.08a.278.278 0 00.248-.308.277.277 0 00-.309-.246c-.47.05-.886.075-1.278.078a.278.278 0 00-.278.278c0 .154.126.277.28.277h.002zm-.247-3.16a.303.303 0 00.087-.012c.313-.104.626-.21.939-.318.863-.296 1.756-.603 2.682-.806C74.468.809 78.394.458 82.103.584a.28.28 0 00.289-.268.279.279 0 00-.27-.288c-3.75-.127-7.722.225-11.8 1.05-.964.213-1.87.524-2.749.827-.31.106-.622.214-.932.315a.276.276 0 00-.179.35c.04.117.148.193.266.193V2.76zm21.354-.65c.107 0 .209-.06.254-.162a.278.278 0 00-.139-.368 18.141 18.141 0 00-5.15-1.464.278.278 0 10-.072.552 17.716 17.716 0 014.992 1.418.27.27 0 00.115.026V2.11z"/><path d="M82.538 1.351A.278.278 0 0082.69.84a5.256 5.256 0 00-2.61-.818.279.279 0 10-.024.556 4.768 4.768 0 012.109.592c.096.054.172.101.226.134.046.03.098.043.15.043l-.002.004zm-3.898.244a.278.278 0 00.15-.512 5.237 5.237 0 00-1.54-.662 5.3 5.3 0 00-1.074-.155.277.277 0 10-.023.556 4.77 4.77 0 012.108.592c.096.054.172.102.227.134.045.03.1.043.15.043l.002.004zm-3.596.506a.286.286 0 00.237-.127.279.279 0 00-.085-.385 5.307 5.307 0 00-2.613-.817.279.279 0 10-.024.556 4.768 4.768 0 012.109.592c.095.054.171.101.226.134a.27.27 0 00.15.043v.004zM69.7 13.579h.006a6.443 6.443 0 003.733-1.265.276.276 0 00.057-.39.28.28 0 00-.392-.055 5.76 5.76 0 01-.943.57 6.003 6.003 0 01-2.468.584.282.282 0 00-.274.286.28.28 0 00.28.272v-.002zm.504-1.122a.288.288 0 00.096-.018l1.594-.579a.278.278 0 00.167-.357.281.281 0 00-.359-.166l-1.593.58a.278.278 0 00.095.54zm-3.97-6.564a.28.28 0 00.28-.27.278.278 0 00-.271-.285c-1.055-.03-1.505-.234-1.579-.722.2-.668.713-1.211 1.566-1.656a.278.278 0 00.117-.377.28.28 0 00-.378-.116c-1.02.531-1.629 1.204-1.859 2.053-.009.033-.01.067-.009.1.118 1.215 1.524 1.256 2.124 1.273h.01zM54.66 51.282a.284.284 0 00.23-.121c.126-.184.195-.379.206-.578.05-.977-1.306-1.651-2.298-2.144a12.86 12.86 0 00-3.3-1.107.278.278 0 10-.106.547 12.37 12.37 0 013.156 1.057c.757.376 2.02 1.005 1.99 1.62a.557.557 0 01-.11.289.279.279 0 00.231.437z"/><path d="M50.88 53.791a.26.26 0 00.081-.012c.52-.158 1.033-.34 1.524-.54.215-.09.509-.21.89-.4.345-.176.687-.368 1.008-.576a.355.355 0 00.044-.035c.015-.015.041-.036.072-.064.365-.325.715-.67.626-1.006-.026-.097-.111-.268-.392-.326a.28.28 0 00-.332.214.28.28 0 00.128.296 3.054 3.054 0 01-.405.407c-.026.023-.05.043-.067.06a10.451 10.451 0 01-1.787.917c-.474.194-.97.371-1.472.523a.278.278 0 00.08.545l.003-.003z"/><path d="M48.452 53.95c.742 0 1.488-.031 2.227-.094a.277.277 0 10-.048-.553c-.968.08-1.946.108-2.91.08-.019 0-2.201-.078-4.012-.456a12.879 12.879 0 01-1.67-.467c-.244-.087-.376-.14-.933-.37l-.672-.277c-.189-.078-.356-.149-.51-.214-.488-.205-.84-.354-1.262-.462a6.547 6.547 0 00-1.806-.203.28.28 0 10.013.558 6.104 6.104 0 011.652.183c.383.1.718.24 1.183.437.156.067.326.138.517.216l.672.277c.552.227.7.287.959.378a13.64 13.64 0 001.741.486c1.861.387 4.02.465 4.111.467.248.007.498.011.746.011l.002.002zm-11.864-4.471h.011a4.539 4.539 0 001.233-.225l.032-.011c1.235-.378 2.5-.71 3.76-.98 1.158-.248 2.074-.445 3.278-.555a19.79 19.79 0 013.853.026.278.278 0 10.056-.553 20.56 20.56 0 00-3.961-.026c-1.24.112-2.17.313-3.346.566a45.549 45.549 0 00-3.807.992l-.041.013a3.98 3.98 0 01-1.053.197 4.323 4.323 0 01-.613-.156c-.243-.08-.415-.162-.48-.192-.663-.31-2.19-.876-3.513-1.256-.748-.216-1.322-.342-2.038-.352a5.876 5.876 0 00-.648.023.28.28 0 10.05.556 6 6 0 01.592-.022c.65.009 1.185.128 1.887.331 1.433.413 2.89.973 3.424 1.222.08.036.274.127.548.218.237.078.48.138.726.181.015.003.03.005.048.005l.002-.002zm-6.444 5.104a.304.304 0 00.113-.024l3.088-1.36a24.498 24.498 0 001.648-.904 25.99 25.99 0 001.182-.752.277.277 0 00.074-.387.28.28 0 00-.389-.073 23.9 23.9 0 01-2.757 1.615L30.03 54.05a.28.28 0 00.113.534l.002-.002z"/><path d="M30.144 54.583c.08 0 .159-.035.213-.1a7.609 7.609 0 001.307-2.183c.254-.657.454-1.176.37-1.857-.096-.77-.5-1.28-1.011-1.926l-.044-.057a7.55 7.55 0 00-1.474-1.416.282.282 0 00-.391.059.278.278 0 00.058.389c.518.38.979.821 1.366 1.312l.043.056c.474.601.818 1.036.896 1.652.067.543-.094.958-.337 1.587a7.135 7.135 0 01-1.213 2.025.276.276 0 00.213.457l.004.002zm18.786-2.292c.642 0 1.138-.24 1.394-.395a.279.279 0 00.091-.383.282.282 0 00-.384-.09 2.12 2.12 0 01-1.322.3c-.613-.067-.992-.39-1.244-.604-.037-.03-.065-.058-.089-.08.15-.034.409-.056.776-.064a7.279 7.279 0 011.874.207.282.282 0 00.34-.205.28.28 0 00-.207-.337 7.832 7.832 0 00-2.02-.225c-.709.017-1.302.065-1.4.475-.059.251.15.47.363.651.268.227.763.646 1.546.733.098.01.191.015.282.015v.002z"/><path d="M51.407 52.938a.278.278 0 00.172-.5 3.654 3.654 0 01-1.037-1.243 3.505 3.505 0 01-.294-.81.28.28 0 00-.543.125c.076.326.189.64.339.936a4.21 4.21 0 001.193 1.433.28.28 0 00.172.059h-.002zm1.707-2.558h.008a.543.543 0 00.535-.547.537.537 0 00-.55-.532c-.145 0-.28.06-.38.165a.538.538 0 00.389.914h-.002zm.017-.54s-.007.015-.017.017c-.01 0-.018-.009-.018-.017h.035zm0 0h-.035s.011-.024.018-.018c.008 0 .017.007.017.018zM45.983 55c.389 0 .778-.037 1.16-.11 1.398-.266 2.183-.558 3.483-1.042a.277.277 0 00.163-.36.28.28 0 00-.36-.161c-1.318.49-2.042.759-3.392 1.016a5.592 5.592 0 01-1.84.045 1.381 1.381 0 01-.389-.112c.11-.1.381-.281.938-.52a.276.276 0 00.145-.364.279.279 0 00-.367-.145c-1.252.534-1.368.875-1.316 1.137.083.408.718.53.91.556.284.038.584.058.86.06h.005zm-5.736-.884a6.75 6.75 0 003.109-.767.278.278 0 00.118-.377.281.281 0 00-.379-.117 6.128 6.128 0 01-4.442.49c.079-.237.205-.5.377-.671.07-.07.172-.173.339-.245.05-.021.087-.032.172-.06l.07-.022c.2-.062.36-.116.469-.153a.279.279 0 10-.183-.528c-.104.037-.263.089-.456.152l-.07.021c-.115.037-.163.052-.23.083-.261.114-.429.28-.51.36-.403.405-.556 1.02-.593 1.2a.279.279 0 00.19.322 6.684 6.684 0 002.017.312h.002zm-.827-5.329a.282.282 0 00.281-.266.282.282 0 00-.267-.292 7.008 7.008 0 01-.74-.07.28.28 0 00-.317.234.278.278 0 00.235.316c.244.037.505.06.796.073h.013v.005z"/><path d="M38.654 48.715a.278.278 0 00.017-.555c-.72-.046-1.08-.279-1.11-.476-.03-.181.22-.486.836-.73a.278.278 0 10-.206-.517c-.822.324-1.266.821-1.183 1.334.085.532.693.884 1.628.942h.018v.002zm9.29-1.755a.278.278 0 00.06-.55 21.978 21.978 0 00-7.013-.442c-.65.065-1.307.16-1.95.285a.28.28 0 00-.222.327c.03.15.176.248.328.22a21.625 21.625 0 011.9-.279 21.412 21.412 0 016.834.432.302.302 0 00.06.007h.003zm3.336 1.42a.277.277 0 00.154-.51 10.643 10.643 0 00-2.451-1.185c-.098-.032-.183-.06-.242-.077a.281.281 0 00-.35.181.278.278 0 00.183.348l.228.074a10.21 10.21 0 012.324 1.124c.048.03.1.045.152.045h.003z"/><path d="M47.006 47.023a.153.153 0 00.102-.268 3.054 3.054 0 00-.833-.519 3.088 3.088 0 00-.608-.186.152.152 0 00-.18.12.152.152 0 00.121.18 2.764 2.764 0 011.179.534c.05.04.091.076.12.1a.151.151 0 00.102.039h-.003zm-1.456-.046c.05 0 .1-.026.13-.071a.153.153 0 00-.045-.212 6.238 6.238 0 00-.837-.447 6.423 6.423 0 00-.574-.223.157.157 0 00-.196.097.156.156 0 00.098.195 6.207 6.207 0 011.211.556c.057.032.102.062.133.081a.146.146 0 00.082.024h-.002zm-1.842.003a.153.153 0 00.124-.063.152.152 0 00-.032-.214c-.033-.024-.079-.059-.137-.098a4.37 4.37 0 00-1.29-.59.152.152 0 00-.189.108.153.153 0 00.109.189 3.994 3.994 0 011.324.636.16.16 0 00.091.03v.002zm-3.558 5.919h.021l1.242-.171a.15.15 0 00.13-.173.152.152 0 00-.174-.13l-1.241.171a.15.15 0 00-.13.173c.01.076.075.132.152.132v-.002zm-7.984-.253a.224.224 0 00.124-.037c.374-.236.706-.525.985-.86.374-.448.724-.87.678-1.423-.048-.564-.48-.923-.94-1.303a4.32 4.32 0 00-1.262-.73.231.231 0 00-.298.135.23.23 0 00.135.296c.413.154.793.374 1.128.65.415.345.743.617.776.991.03.365-.235.685-.572 1.09a3.728 3.728 0 01-.878.767.23.23 0 00.124.424zM25.32 43.23a.28.28 0 00.271-.211 1.1 1.1 0 00-.008-.612c-.296-.934-1.805-1.096-2.905-1.213a12.905 12.905 0 00-3.48.106.279.279 0 10.09.55 12.317 12.317 0 013.33-.102c.838.09 2.245.242 2.43.828a.573.573 0 010 .309.278.278 0 00.272.346z"/><path d="M22.658 46.89a.29.29 0 00.17-.055c.433-.327.848-.675 1.24-1.036.171-.158.406-.374.693-.683.263-.283.513-.581.743-.889a.37.37 0 00.029-.047.855.855 0 01.043-.084c.23-.43.437-.876.235-1.161-.059-.083-.198-.212-.48-.171a.279.279 0 00-.013.55 3.018 3.018 0 01-.238.522c-.017.03-.03.059-.04.078a10.454 10.454 0 01-1.355 1.477c-.377.348-.78.683-1.198 1a.275.275 0 00-.052.39c.054.071.139.11.221.11h.002z"/><path d="M8.716 49.595a.27.27 0 00.104-.02 5.999 5.999 0 011.613-.4c.394-.038.76-.023 1.264 0 .17.01.354.016.558.025l.729.026c.595.021.754.028 1.028.021.606-.01 1.213-.06 1.802-.149 1.879-.28 3.931-.958 4.018-.988.93-.313 1.859-.687 2.759-1.107a.278.278 0 10-.237-.503 25.72 25.72 0 01-2.698 1.083c-.02.006-2.092.69-3.922.964-.565.084-1.148.132-1.729.143-.258.004-.4 0-1-.022l-.73-.026a29.302 29.302 0 01-.555-.024c-.528-.024-.91-.04-1.343.002a6.538 6.538 0 00-1.766.437.278.278 0 00.105.536v.002zM.28 48.504a.29.29 0 00.12-.026c.176-.085.361-.16.546-.225.613-.218 1.154-.292 1.885-.346 1.487-.11 3.05-.089 3.637-.041.09.006.304.026.591.015.248-.009.498-.037.744-.082.02-.005.04-.009.056-.017a4.364 4.364 0 001.074-.638l.029-.022a45.67 45.67 0 013.18-2.22c.998-.636 1.788-1.137 2.879-1.658 1.152-.55 2.37-.99 3.62-1.312a.28.28 0 10-.141-.538 20.52 20.52 0 00-3.723 1.348c-1.121.536-1.924 1.044-2.937 1.69a45.57 45.57 0 00-3.22 2.25l-.034.025c-.087.067-.287.227-.572.383-.111.06-.226.116-.344.166a4.372 4.372 0 01-1.148.054c-.73-.06-2.359-.06-3.733.041-.778.059-1.358.136-2.032.377a6.318 6.318 0 00-.598.246.28.28 0 00-.133.372.28.28 0 00.252.158h.003zm3.218 6.316c.07 0 .141-.025.196-.08l2.417-2.343a24.828 24.828 0 002.075-2.534.278.278 0 10-.455-.322 24.774 24.774 0 01-2.018 2.469l-2.406 2.335a.279.279 0 00.196.478l-.005-.002z"/><path d="M3.498 54.82a.28.28 0 00.263-.183 7.6 7.6 0 00.459-2.501c.008-.705.013-1.26-.305-1.868-.36-.688-.917-1.027-1.622-1.455l-.06-.037a7.628 7.628 0 00-1.879-.817.279.279 0 00-.346.19.277.277 0 00.192.344c.62.175 1.204.43 1.739.756l.06.037c.657.4 1.131.688 1.418 1.239.255.484.248.93.242 1.604a7.093 7.093 0 01-.426 2.32.279.279 0 00.263.374l.002-.002zM19.53 46.3c.187 0 .39-.02.602-.073a2.655 2.655 0 001.437-.938.278.278 0 00-.048-.391.281.281 0 00-.393.047c-.168.212-.535.59-1.133.74-.598.149-1.067-.022-1.376-.135-.046-.017-.083-.03-.113-.045.128-.084.365-.194.706-.329a7.261 7.261 0 011.829-.454.278.278 0 10-.065-.553 7.82 7.82 0 00-1.972.49c-.659.262-1.198.513-1.146.93.03.255.304.387.57.483.237.086.621.226 1.104.226l-.002.003z"/><path d="M22.852 45.91a.28.28 0 00.268-.195.277.277 0 00-.183-.348 3.626 3.626 0 01-1.97-1.464.281.281 0 00-.387-.08.278.278 0 00-.08.385 4.164 4.164 0 002.267 1.688.287.287 0 00.085.013zm.611-2.973a.54.54 0 10-.198-1.042.54.54 0 00.196 1.042h.002zm.017-.545c.005.009 0 .02-.01.022-.007.002-.02-.003-.022-.011l.032-.013v.002zm0 0l-.032.013s0-.02.01-.022c.01-.002.02.002.022.011v-.002zm-6.146 7.603c.18 0 .346-.03.426-.047a6.163 6.163 0 001.876-.748c1.218-.733 1.85-1.28 2.9-2.184a.277.277 0 00.029-.393.28.28 0 00-.396-.028c-1.063.914-1.648 1.42-2.824 2.13a5.69 5.69 0 01-1.707.68c-.156.035-.31.039-.404.028.065-.132.259-.395.696-.81a.278.278 0 00.008-.394.282.282 0 00-.395-.009c-.985.937-.974 1.295-.833 1.522.126.201.385.256.62.256l.004-.003zm-6.446 1.275h.013a6.71 6.71 0 002.28-.516 6.714 6.714 0 002.366-1.686.279.279 0 00-.022-.394.28.28 0 00-.395.022 6.075 6.075 0 01-3.99 2c-.008-.214.005-.515.118-.76.04-.088.102-.22.23-.347.04-.037.07-.06.14-.115l.058-.045c.165-.128.298-.236.385-.307a.277.277 0 00.039-.391.28.28 0 00-.394-.04c-.084.07-.215.176-.376.299l-.056.045a2.007 2.007 0 00-.187.156c-.205.199-.303.413-.35.515-.237.516-.166 1.147-.137 1.33a.28.28 0 00.276.235h.002zm-1.47-4.898c.02 0 .04 0 .059-.007.239-.05.493-.118.772-.207a.277.277 0 00.18-.35.28.28 0 00-.352-.18 7.184 7.184 0 01-.718.193.278.278 0 00.059.551z"/><path d="M8.635 46.502c.257 0 .546-.046.863-.14a.278.278 0 10-.16-.532c-.692.205-1.111.112-1.21-.061-.09-.16.038-.534.529-.973a.279.279 0 00.022-.393.282.282 0 00-.396-.022c-.656.588-.898 1.208-.641 1.66.171.303.524.46.993.46zm.527-2.076c.05 0 .1-.013.145-.04.546-.332 1.111-.64 1.683-.92a21.404 21.404 0 016.557-1.962.279.279 0 00.24-.314.28.28 0 00-.316-.238 22.005 22.005 0 00-6.729 2.015c-.587.285-1.17.603-1.728.945a.277.277 0 00-.094.383.28.28 0 00.24.133l.002-.002zm11.975-2.746a.276.276 0 00.271-.215.279.279 0 00-.21-.333 11.03 11.03 0 00-1.379-.22c-.441-.042-.89-.057-1.335-.042a5.26 5.26 0 00-.254.01.28.28 0 00-.265.293.28.28 0 00.293.264l.241-.011a10.21 10.21 0 012.572.249.313.313 0 00.063.006h.003z"/><path d="M16.7 41.882c.06 0 .119-.037.143-.097a.153.153 0 00-.09-.2 3.017 3.017 0 00-.963-.197 3.148 3.148 0 00-.637.038.154.154 0 00-.128.175.156.156 0 00.176.127 2.815 2.815 0 011.292.095c.06.02.11.04.145.052a.16.16 0 00.055.011l.006-.004zm-1.384.462a.153.153 0 00.033-.302c-.037-.009-.094-.02-.16-.033a6.497 6.497 0 00-1.399-.108.155.155 0 00-.15.158c.002.084.078.145.159.15a5.934 5.934 0 011.483.132c.01.001.021.003.032.003h.002zm-1.723.64a.153.153 0 00.043-.3c-.04-.01-.093-.026-.163-.043a4.128 4.128 0 00-.79-.115 4.28 4.28 0 00-.623.01.152.152 0 00-.14.167.155.155 0 00.168.139 4 4 0 01.58-.009 3.926 3.926 0 01.883.148.152.152 0 00.044.005l-.002-.002zm-1.261 6.782c.023 0 .05-.006.073-.02l1.103-.59a.156.156 0 00.063-.207.157.157 0 00-.209-.063l-1.102.59a.156.156 0 00-.063.208c.028.052.08.08.135.08v.002zM4.73 52.302c.07 0 .14-.03.185-.09a4.15 4.15 0 00.622-1.149c.194-.547.374-1.066.137-1.567-.243-.512-.774-.7-1.337-.897a4.388 4.388 0 00-1.44-.247.229.229 0 00-.23.23.23.23 0 00.23.23c.442 0 .875.076 1.286.221.51.18.913.32 1.074.66.156.333.02.724-.155 1.221a3.71 3.71 0 01-.554 1.023.23.23 0 00.183.37v-.005zm51.736-27.784a.309.309 0 00.254-.134c.17-.245.261-.502.274-.766.068-1.314-1.804-2.244-3.17-2.922a18.038 18.038 0 00-4.598-1.542.305.305 0 10-.117.601 17.45 17.45 0 014.44 1.487c1.075.537 2.876 1.432 2.83 2.346a.865.865 0 01-.167.45.305.305 0 00.08.426.3.3 0 00.174.054z"/><path d="M51.179 28.03c.03 0 .06-.004.089-.012a23.974 23.974 0 002.126-.755 15.516 15.516 0 002.646-1.36c.017-.01.032-.023.048-.036.021-.022.058-.054.102-.093.493-.437.965-.9.852-1.326-.03-.116-.135-.324-.483-.397a.306.306 0 00-.144.595c-.058.107-.225.304-.634.67l-.098.086a15.066 15.066 0 01-2.522 1.293c-.667.274-1.365.52-2.07.735a.306.306 0 00-.204.382.311.311 0 00.296.219h-.004z"/><path d="M47.78 28.251c1.035 0 2.076-.043 3.11-.13a.306.306 0 10-.053-.61c-1.359.116-2.73.152-4.08.113-.03 0-3.09-.11-5.634-.64a18.57 18.57 0 01-2.348-.655c-.343-.12-.528-.196-1.307-.516l-.943-.387c-.263-.108-.498-.208-.715-.299-.68-.287-1.172-.493-1.757-.646a9.113 9.113 0 00-2.507-.281.307.307 0 00-.3.313.315.315 0 00.315.299 8.453 8.453 0 012.335.261c.542.14 1.016.342 1.672.616.218.093.455.193.72.3l.943.388c.77.318.977.402 1.337.527.796.28 1.614.508 2.429.677 2.598.54 5.71.65 5.742.653.346.01.693.015 1.043.015l-.002.002zm-16.612-6.256h.013a6.072 6.072 0 001.702-.311l.048-.016a63.91 63.91 0 015.27-1.372c1.624-.35 2.91-.625 4.6-.78a28.126 28.126 0 015.412.034.306.306 0 10.065-.61 28.834 28.834 0 00-5.53-.037c-1.73.158-3.03.437-4.675.792a64.12 64.12 0 00-5.322 1.385l-.057.018c-.148.047-.496.16-.952.227a5.23 5.23 0 01-.552.052 6.176 6.176 0 01-.88-.221c-.344-.115-.59-.23-.684-.272-.924-.43-3.056-1.222-4.904-1.754-1.042-.3-1.838-.475-2.829-.488-.3-.005-.602.006-.898.032a.308.308 0 10.055.612 8.95 8.95 0 01.837-.03c.92.013 1.674.18 2.665.465 2.011.579 4.057 1.366 4.807 1.714a6.792 6.792 0 001.815.558l-.006.002zm-9.023 7.145a.311.311 0 00.124-.026l4.322-1.903a35.57 35.57 0 002.3-1.26 35.6 35.6 0 001.653-1.053.307.307 0 10-.348-.506 34.889 34.889 0 01-3.87 2.266l-4.307 1.896a.306.306 0 00.126.586z"/><path d="M22.145 29.14a.308.308 0 00.235-.108 10.571 10.571 0 001.816-3.033c.352-.91.628-1.628.513-2.56-.133-1.055-.692-1.762-1.398-2.657l-.061-.078a10.504 10.504 0 00-2.048-1.967.31.31 0 00-.43.065.306.306 0 00.065.428 9.897 9.897 0 011.928 1.852l.061.078c.674.852 1.161 1.468 1.272 2.355.098.778-.13 1.368-.476 2.263a9.924 9.924 0 01-1.713 2.858.307.307 0 00.234.504h.002zm26.303-3.208c.879 0 1.557-.329 1.907-.543a.304.304 0 00.1-.422.306.306 0 00-.424-.1 3.044 3.044 0 01-1.902.433c-.883-.097-1.427-.56-1.788-.864a2.07 2.07 0 01-.226-.217c.146-.056.485-.112 1.24-.132.863-.019 1.754.078 2.645.294a.306.306 0 10.146-.594c-.944-.23-1.89-.333-2.807-.311-.922.021-1.758.084-1.883.6-.058.247.081.487.483.829.392.333 1.048.888 2.12 1.007.133.015.263.022.387.022l.002-.002z"/><path d="M51.916 26.837a.31.31 0 00.243-.119.305.305 0 00-.054-.43 5.116 5.116 0 01-1.896-2.92.308.308 0 00-.6.138 5.7 5.7 0 00.47 1.29c.389.77.943 1.434 1.648 1.977a.308.308 0 00.189.064zm2.387-3.582h.01a.673.673 0 00.666-.68.673.673 0 00-.676-.662h-.009a.673.673 0 00-.665.68.673.673 0 00.676.662h-.002zm0-.73c.032 0 .059.025.059.058a.05.05 0 01-.018.04.056.056 0 01-.041.018.063.063 0 01-.061-.058.06.06 0 01.059-.06l.002.002zm-9.984 7.199c.54 0 1.08-.052 1.611-.152 1.95-.372 3.046-.778 4.864-1.455a.306.306 0 00.18-.393.31.31 0 00-.396-.18c-1.848.688-2.865 1.066-4.763 1.427-.491.093-.996.14-1.494.14h-.008c-.366 0-.735-.025-1.098-.077-.307-.043-.57-.15-.664-.22.09-.117.444-.41 1.41-.822a.305.305 0 00.16-.402.308.308 0 00-.404-.16c-1.707.728-1.855 1.184-1.792 1.5.107.532 1.022.688 1.203.713.391.055.789.083 1.182.085h.011l-.002-.005zm-8.029-1.239a9.374 9.374 0 004.314-1.064.304.304 0 00.128-.413.307.307 0 00-.415-.127 8.784 8.784 0 01-3.638.985 8.657 8.657 0 01-2.724-.313c.09-.296.266-.75.572-1.057.096-.095.252-.253.5-.361.065-.028.115-.046.25-.087l.096-.03c.278-.089.504-.164.654-.216a.306.306 0 10-.2-.58c-.148.05-.367.126-.641.212l-.096.03c-.146.046-.217.07-.315.11-.352.156-.57.373-.685.487-.55.55-.759 1.392-.809 1.637a.307.307 0 00.209.354c.91.288 1.852.435 2.798.435l.002-.002zm-1.156-7.461a.31.31 0 00.309-.292.307.307 0 00-.294-.32c-.385-.017-.726-.05-1.044-.095a.306.306 0 10-.091.605c.337.05.7.085 1.107.102h.015-.002z"/><path d="M34.06 20.925a.308.308 0 00.02-.614c-1.06-.067-1.584-.418-1.634-.735-.043-.275.25-.729 1.224-1.111a.307.307 0 10-.226-.571c-1.11.437-1.71 1.102-1.604 1.777.11.702.935 1.17 2.202 1.252h.02l-.002.002zm13.005-2.458a.308.308 0 00.3-.238.306.306 0 00-.233-.366 30.725 30.725 0 00-9.792-.618c-.909.091-1.824.225-2.724.398a.305.305 0 10.117.601c.881-.17 1.777-.303 2.668-.391a30.055 30.055 0 019.594.607.335.335 0 00.068.009l.002-.002zm4.672 1.989c.1 0 .2-.05.26-.139a.304.304 0 00-.09-.424 15.082 15.082 0 00-3.413-1.649c-.137-.045-.255-.082-.337-.108a.306.306 0 10-.183.584c.078.023.19.06.322.103a14.38 14.38 0 013.272 1.583c.052.034.11.05.167.05h.002z"/><path d="M45.83 18.882a.232.232 0 00.174-.078.228.228 0 00-.02-.324 4.287 4.287 0 00-1.17-.73 4.464 4.464 0 00-.856-.263.23.23 0 10-.09.452 3.91 3.91 0 011.812.887.227.227 0 00.152.058l-.002-.002zm-2.117-.292a.23.23 0 00.126-.424 8.707 8.707 0 00-1.176-.63 8.708 8.708 0 00-.805-.31.231.231 0 00-.293.145.23.23 0 00.146.291 8.416 8.416 0 011.876.893.238.238 0 00.124.037l.002-.002zm-2.577.004a.23.23 0 00.14-.415l-.192-.136a6.13 6.13 0 00-1.809-.826.234.234 0 00-.285.16.23.23 0 00.161.283 5.616 5.616 0 011.67.763c.076.05.135.096.176.126a.23.23 0 00.137.045h.002zm-4.981 8.286s.022 0 .033-.002l1.737-.24a.231.231 0 00.198-.259.232.232 0 00-.261-.197l-1.737.24a.231.231 0 00-.198.26.231.231 0 00.228.199zm-11.179-.462c.042 0 .085-.01.124-.037a5.791 5.791 0 001.359-1.187c.509-.611.99-1.189.928-1.924-.063-.752-.656-1.243-1.282-1.764a5.982 5.982 0 00-1.74-1.005.231.231 0 00-.297.134.229.229 0 00.134.296 5.58 5.58 0 011.607.928c.598.497 1.07.888 1.117 1.448.046.55-.336 1.01-.821 1.593a5.295 5.295 0 01-1.25 1.092.23.23 0 00.123.424l-.002.002zm68.55 4.73c.113 0 .22-.069.261-.18.08-.207.1-.412.063-.609-.185-.962-1.663-1.297-2.741-1.544a12.94 12.94 0 00-3.47-.3.28.28 0 00-.268.292.283.283 0 00.294.266 12.34 12.34 0 013.317.285c.825.188 2.203.502 2.318 1.105a.575.575 0 01-.037.307.278.278 0 00.263.376v.002z"/><path d="M90.452 34.473a.278.278 0 00.141-.039c.468-.274.922-.573 1.352-.884.187-.136.446-.322.77-.599.296-.25.578-.519.844-.795.013-.013.023-.029.034-.044a1.33 1.33 0 01.055-.078c.278-.402.537-.819.37-1.124-.049-.088-.17-.235-.457-.224a.279.279 0 00-.272.285.28.28 0 00.196.257c-.037.09-.122.24-.296.49l-.05.074c-.246.258-.51.506-.785.738-.309.261-.554.44-.735.57-.415.3-.854.588-1.306.854a.277.277 0 00.143.517l-.004.002z"/><path d="M82.936 35.874c.143 0 .284-.002.426-.007 1.9-.06 4.015-.492 4.105-.512a26.457 26.457 0 002.87-.778.278.278 0 10-.179-.528 25.91 25.91 0 01-2.807.761c-.02.005-2.159.441-4.009.502-.572.02-1.156 0-1.733-.06a17.42 17.42 0 01-.995-.141l-.718-.11c-.2-.03-.38-.06-.545-.087-.522-.084-.9-.147-1.335-.153a6.595 6.595 0 00-1.805.227.278.278 0 10.146.538 6.067 6.067 0 011.65-.21c.396.007.757.065 1.254.147l.553.089.715.11c.591.09.752.117 1.024.143.459.045.922.069 1.38.069h.003zm-7.718-2.22c.113 0 .228-.005.341-.011.02 0 .04-.004.057-.01a4.7 4.7 0 00.445-.154c.346-.139.592-.29.698-.355l.029-.017a45.556 45.556 0 013.42-1.836c1.067-.514 1.908-.92 3.054-1.31a20.17 20.17 0 013.75-.882.278.278 0 10-.076-.551 20.409 20.409 0 00-3.857.906c-1.176.4-2.032.813-3.115 1.336a46.3 46.3 0 00-3.463 1.857l-.037.021a3.928 3.928 0 01-.974.44 4.407 4.407 0 01-1.146-.08c-.718-.146-2.335-.336-3.711-.396-.779-.033-1.366-.022-2.061.136-.211.047-.42.108-.624.175a.28.28 0 00-.176.352c.05.145.208.223.354.175.185-.062.376-.116.57-.16.634-.144 1.18-.155 1.913-.123 1.49.065 3.04.266 3.618.383.084.017.295.06.584.084.135.011.272.018.407.018v.002zm-4.727 6.462c.059 0 .12-.02.17-.059l2.676-2.047a25.012 25.012 0 002.36-2.276.277.277 0 00-.02-.394.28.28 0 00-.396.02 24.91 24.91 0 01-2.296 2.218l-2.665 2.038a.28.28 0 00-.053.392.28.28 0 00.222.108h.002z"/><path d="M70.49 40.116a.278.278 0 00.25-.154 7.61 7.61 0 00.752-2.43c.09-.698.163-1.25-.083-1.891-.276-.725-.79-1.127-1.44-1.635l-.056-.043a7.653 7.653 0 00-1.77-1.031.277.277 0 00-.365.149.276.276 0 00.15.363 7.087 7.087 0 011.64.953l.056.044c.604.473 1.041.815 1.263 1.394.196.51.137.953.05 1.621-.1.77-.335 1.529-.698 2.253a.277.277 0 00.126.374c.04.02.083.03.124.03v.003zm17.179-6.576c.102 0 .209-.007.317-.02a2.67 2.67 0 001.54-.763.276.276 0 00-.002-.394.28.28 0 00-.396.002 2.09 2.09 0 01-1.213.603c-.611.08-1.057-.144-1.353-.294a1.835 1.835 0 01-.106-.056c.137-.069.385-.149.739-.244a7.252 7.252 0 011.87-.238.28.28 0 00.28-.279.28.28 0 00-.28-.279 7.8 7.8 0 00-2.016.258c-.684.183-1.25.367-1.248.79 0 .256.246.414.51.546.269.134.736.37 1.358.37v-.003z"/><path d="M90.76 33.522a.277.277 0 00.115-.532c-.51-.23-.95-.553-1.302-.964a3.633 3.633 0 01-.478-.718.28.28 0 00-.376-.123.277.277 0 00-.124.374 4.184 4.184 0 002.052 1.941.268.268 0 00.116.024l-.003-.002zm.988-2.88a.539.539 0 10-.135-1.061.537.537 0 00-.141.986.54.54 0 00.274.075h.002zm0-.555s.015.006.017.013c0 .008-.004.02-.013.021a.018.018 0 01-.022-.013c-.002-.008.002-.02.013-.021h.005zm-6.764 6.859c.09 0 .163-.006.211-.01a6.193 6.193 0 001.952-.524c1.294-.586 1.988-1.055 3.138-1.83a.277.277 0 00.074-.388.28.28 0 00-.39-.073c-1.163.785-1.804 1.217-3.054 1.785a5.611 5.611 0 01-1.774.476 1.444 1.444 0 01-.405-.017c.08-.123.305-.364.787-.724a.278.278 0 00.057-.39.282.282 0 00-.391-.056c-1.09.813-1.12 1.172-1.007 1.414.132.285.533.337.804.337h-.002zm-6.29.521c.63 0 1.253-.088 1.86-.264a6.736 6.736 0 002.547-1.398.279.279 0 00.024-.394.282.282 0 00-.395-.023 6.196 6.196 0 01-2.336 1.282 6.17 6.17 0 01-1.863.24c.015-.212.066-.513.205-.742.05-.082.126-.207.271-.318.044-.032.076-.052.153-.097l.063-.037c.178-.108.324-.199.42-.26a.278.278 0 00.084-.384.282.282 0 00-.387-.084 16.6 16.6 0 01-.409.253l-.06.036c-.103.063-.146.089-.205.132-.228.173-.35.374-.409.471-.297.489-.297 1.122-.29 1.304a.28.28 0 00.26.268c.156.01.31.015.467.015zm-1.33-5.052h.026c.245-.022.504-.06.791-.115a.28.28 0 00.222-.326.282.282 0 00-.328-.22 8.29 8.29 0 01-.735.108.278.278 0 00.024.556v-.003z"/><path d="M76.822 32.467c.183 0 .38-.017.592-.054a.277.277 0 10-.098-.547c-.711.125-1.115-.017-1.194-.199-.071-.169.098-.525.64-.906a.277.277 0 00.067-.387.28.28 0 00-.39-.067c-.721.508-1.032 1.096-.832 1.574.16.383.6.588 1.215.588v-.002zm.518-2.013a.291.291 0 00.117-.026c.58-.266 1.178-.506 1.78-.715a21.48 21.48 0 016.745-1.187.28.28 0 00.276-.283.283.283 0 00-.285-.275 22.02 22.02 0 00-6.92 1.217c-.618.216-1.233.463-1.829.735a.277.277 0 00-.137.37.28.28 0 00.255.162l-.002.002zm12.214-1.332a.277.277 0 00.263-.185.276.276 0 00-.17-.355 10.687 10.687 0 00-2.665-.575 20.29 20.29 0 00-.252-.02.278.278 0 10-.037.556c.059.004.141.009.239.017.42.037.841.1 1.252.189.43.09.86.211 1.274.358.03.011.063.015.094.015h.002z"/><path d="M85.11 28.805a.154.154 0 00.072-.29 3.087 3.087 0 00-1.572-.346.156.156 0 00-.148.16c.004.084.074.15.161.147a2.827 2.827 0 011.274.242c.059.026.107.05.14.067a.146.146 0 00.071.017l.002.003zm-1.428.295a.153.153 0 00.05-.298l-.157-.051a6.61 6.61 0 00-1.376-.27.156.156 0 00-.168.14.156.156 0 00.142.166 6.38 6.38 0 011.309.255l.147.048a.135.135 0 00.05.009l.003.002zm-1.787.438c.06 0 .117-.035.141-.093a.154.154 0 00-.083-.201 4.523 4.523 0 00-.926-.268 4.66 4.66 0 00-.622-.063.156.156 0 00-.158.149.155.155 0 00.15.158 4.101 4.101 0 011.294.25c.06.022.11.044.143.057.02.008.039.013.058.013l.003-.002zm-2.053 6.587c.02 0 .04-.005.056-.011l1.166-.458a.155.155 0 00.087-.2.156.156 0 00-.2-.086l-1.165.459a.155.155 0 00-.088.199c.024.06.083.097.144.097zm-7.836 1.632a.235.235 0 00.168-.071c.309-.318.56-.677.752-1.068.257-.521.498-1.014.32-1.542-.18-.538-.687-.785-1.224-1.046a4.415 4.415 0 00-1.4-.413.23.23 0 10-.054.456 3.91 3.91 0 011.25.368c.484.237.869.423.989.78.117.348-.066.722-.298 1.193-.17.349-.396.668-.67.952a.23.23 0 00.167.39zm41.117-32.666c.044 0 .087-.01.129-.03a12.263 12.263 0 013.137-1.113c.828-.171 2.211-.457 2.57.045a.58.58 0 01.095.294.282.282 0 00.298.26.278.278 0 00.261-.297 1.115 1.115 0 00-.198-.58c-.569-.797-2.054-.49-3.139-.267a12.881 12.881 0 00-3.281 1.165.276.276 0 00-.119.374.28.28 0 00.247.151v-.002z"/><path d="M117.93 8.842a.281.281 0 00.231-.119 16.181 16.181 0 001.306-2.227c.163-.35.309-.71.435-1.074a.193.193 0 00.013-.054c.002-.022.009-.054.015-.095.085-.48.146-.967-.134-1.176-.081-.06-.255-.143-.511-.015a.278.278 0 00-.129.371.282.282 0 00.285.154c.002.097-.011.27-.063.569l-.015.088a10.34 10.34 0 01-.404.997c-.17.365-.32.629-.429.823-.252.446-.53.889-.83 1.32a.277.277 0 00.228.436l.002.002z"/><path d="M105.496 15.674a.282.282 0 00.179-.065 6.031 6.031 0 011.411-.874c.361-.157.713-.253 1.202-.384.163-.046.341-.093.539-.15l.7-.196c.574-.163.729-.206.989-.294a13.843 13.843 0 001.67-.692c1.702-.841 3.444-2.112 3.518-2.166a26.683 26.683 0 002.283-1.896.277.277 0 00.013-.394.28.28 0 00-.396-.013 26.23 26.23 0 01-2.233 1.855c-.017.013-1.778 1.295-3.435 2.114-.513.253-1.05.476-1.6.664a18.7 18.7 0 01-.959.283l-.7.197c-.196.056-.372.104-.535.147-.511.138-.878.24-1.278.413a6.516 6.516 0 00-1.544.953.277.277 0 00-.037.392.278.278 0 00.216.101l-.003.005zM97.13 17.21c.07 0 .137-.025.192-.075.143-.134.293-.262.45-.38.515-.394 1.008-.63 1.687-.904 1.383-.558 2.874-1.016 3.448-1.15a4.9 4.9 0 001.25-.472.235.235 0 00.048-.032c.117-.102.232-.21.341-.324a4.25 4.25 0 00.485-.612l.02-.028a44.683 44.683 0 012.341-3.085c.757-.91 1.35-1.628 2.226-2.456a19.916 19.916 0 013.04-2.354.28.28 0 10-.3-.472 20.446 20.446 0 00-3.127 2.422c-.9.851-1.506 1.58-2.272 2.503a44.907 44.907 0 00-2.371 3.126l-.024.035a4.13 4.13 0 01-.427.538c-.086.093-.18.182-.276.264-.184.1-.38.186-.578.257-.241.087-.426.13-.498.147-.713.167-2.263.662-3.54 1.178-.721.292-1.25.545-1.817.977a7.058 7.058 0 00-.493.418.276.276 0 00-.011.393.275.275 0 00.204.087h.002zm5.014 5.03a.28.28 0 00.248-.15l1.576-2.968a25.5 25.5 0 001.189-3.046.28.28 0 00-.533-.167 24.791 24.791 0 01-1.158 2.966l-1.57 2.956a.277.277 0 00.248.408z"/><path d="M102.146 22.24c.15 0 .274-.12.281-.271a7.624 7.624 0 00-.335-2.52c-.211-.673-.376-1.205-.867-1.685-.555-.545-1.19-.696-1.994-.889l-.07-.017a7.637 7.637 0 00-2.039-.203.277.277 0 00-.27.288c.005.153.13.276.29.268a7.06 7.06 0 011.889.188l.07.017c.747.18 1.287.31 1.732.746.392.383.524.808.724 1.453a6.97 6.97 0 01.309 2.337.279.279 0 00.272.287h.008zM113.98 9.35c.367 0 .891-.05 1.426-.383a2.648 2.648 0 001.078-1.331.28.28 0 00-.526-.19 2.087 2.087 0 01-.85 1.05c-.522.324-1.022.305-1.352.292a.888.888 0 01-.12-.009c.098-.119.287-.296.57-.53a7.157 7.157 0 011.6-.99.28.28 0 10-.235-.506 7.793 7.793 0 00-1.724 1.069c-.546.45-.983.854-.804 1.236.108.234.408.275.691.286.07.002.152.006.244.006h.002z"/><path d="M117.776 7.848h.037a.278.278 0 10-.002-.558h-.035a3.673 3.673 0 01-2.294-.791.278.278 0 00-.393.043.277.277 0 00.043.391c.263.21.548.385.85.525.559.258 1.161.39 1.792.39h.002zm-.381-3.003a.54.54 0 00.055-1.077.533.533 0 00-.398.119.535.535 0 00-.078.759.537.537 0 00.421.199zm0-.556s.011 0 .013.007c.005.006.005.02-.002.023-.006.007-.019.005-.024-.002-.004-.006-.004-.02.002-.024a.02.02 0 01.011-.004zm-3.82 9.179c.289 0 .607-.166.724-.235a6.205 6.205 0 001.557-1.284c.93-1.07 1.365-1.782 2.085-2.964a.279.279 0 00-.478-.29c-.729 1.196-1.131 1.855-2.031 2.888a5.648 5.648 0 01-1.415 1.168 1.39 1.39 0 01-.376.151c.021-.145.123-.456.413-.984a.278.278 0 00-.113-.378.282.282 0 00-.381.113c-.65 1.19-.528 1.528-.324 1.703a.51.51 0 00.337.11l.002.002zm-5.493 3.135a.306.306 0 00.097-.017 6.596 6.596 0 002.009-1.19 6.69 6.69 0 001.731-2.325.278.278 0 00-.141-.368.28.28 0 00-.37.14 6.082 6.082 0 01-3.179 3.122c-.073-.2-.154-.49-.123-.758.01-.096.028-.24.113-.402.026-.048.047-.078.097-.152l.042-.06a17 17 0 00.271-.411.278.278 0 00-.084-.385.282.282 0 00-.387.084c-.059.093-.15.232-.266.4l-.041.06c-.067.1-.096.141-.128.206-.135.253-.161.484-.174.597-.065.564.198 1.141.28 1.306a.279.279 0 00.25.153h.003zm-2.911-4.211a.271.271 0 00.139-.037c.213-.121.432-.264.672-.432a.279.279 0 00.065-.39.283.283 0 00-.392-.064c-.221.158-.426.29-.624.402a.279.279 0 00.14.52z"/><path d="M104.068 12.822c.361 0 .798-.162 1.261-.48a.277.277 0 00.072-.387.28.28 0 00-.389-.071c-.594.406-1.022.447-1.168.311-.135-.125-.13-.519.202-1.087a.276.276 0 00-.102-.38.28.28 0 00-.382.1c-.444.762-.481 1.426-.098 1.776a.87.87 0 00.604.218zm.257-2.202a.283.283 0 00.213-.098c.417-.482.858-.95 1.317-1.388a21.352 21.352 0 015.633-3.872.281.281 0 00.133-.372.283.283 0 00-.374-.132 21.863 21.863 0 00-5.781 3.974c-.47.452-.926.932-1.352 1.427a.28.28 0 00.213.46h-.002zm7.72-5.622a.274.274 0 00.1-.02 10.42 10.42 0 012.752-.631.28.28 0 10-.05-.555 10.702 10.702 0 00-2.902.668.278.278 0 00.1.538z"/><path d="M109.258 6.207a.152.152 0 00.069-.018 2.853 2.853 0 011.414-.303.153.153 0 00.163-.144.155.155 0 00-.146-.162 2.99 2.99 0 00-.978.106 3.22 3.22 0 00-.594.229.152.152 0 00-.067.205c.028.054.08.085.137.085l.002.002zm-1.17.88a.146.146 0 00.052-.009 6.435 6.435 0 011.298-.311c.065-.009.118-.013.154-.018a.154.154 0 00.14-.166.157.157 0 00-.168-.138c-.039.004-.095.008-.163.017a6.695 6.695 0 00-1.363.326.153.153 0 00.052.299h-.002zm-1.446 1.128c.02 0 .039-.004.061-.013a4.096 4.096 0 011.281-.307l.154-.008a.154.154 0 00.15-.158.155.155 0 00-.159-.15c-.039 0-.098.005-.167.01a4.337 4.337 0 00-1.378.332.153.153 0 00-.083.201.154.154 0 00.141.093zm2.387 6.51a.147.147 0 00.111-.048l.868-.9a.153.153 0 00-.222-.211l-.868.899a.153.153 0 00.111.26zm-6.474 4.738a.227.227 0 00.217-.153c.148-.417.226-.848.237-1.282.013-.582.028-1.129-.354-1.535-.389-.413-.952-.428-1.55-.445a4.397 4.397 0 00-1.446.205.23.23 0 10.141.439c.42-.134.857-.195 1.292-.184.541.015.967.026 1.226.3.252.269.241.684.23 1.209-.008.387-.08.772-.211 1.142a.23.23 0 00.218.304z"/></g><defs><clipPath id="clip0_2638_39119"><path fill="#fff" transform="matrix(-1 0 0 1 120 0)" d="M0 0h120v55H0z"/></clipPath></defs></svg>